<svg width="24" height="24" viewBox="0 0 24 24" fill="none" xmlns="http://www.w3.org/2000/svg">
<path d="M9.29007 15.88L13.1701 12L9.29007 8.11999C9.19749 8.02741 9.12405 7.9175 9.07394 7.79653C9.02384 7.67557 8.99805 7.54592 8.99805 7.41499C8.99805 7.28406 9.02384 7.15441 9.07394 7.03345C9.12405 6.91248 9.19749 6.80257 9.29007 6.70999C9.38265 6.61741 9.49256 6.54397 9.61352 6.49386C9.73449 6.44376 9.86414 6.41797 9.99507 6.41797C10.126 6.41797 10.2556 6.44376 10.3766 6.49386C10.4976 6.54397 10.6075 6.61741 10.7001 6.70999L15.2901 11.3C15.6801 11.69 15.6801 12.32 15.2901 12.71L10.7001 17.3C10.6076 17.3927 10.4977 17.4662 10.3767 17.5164C10.2557 17.5666 10.126 17.5924 9.99507 17.5924C9.8641 17.5924 9.73442 17.5666 9.61344 17.5164C9.49247 17.4662 9.38258 17.3927 9.29007 17.3C8.91007 16.91 8.90007 16.27 9.29007 15.88Z" fill="#EFEFEF"/>
</svg>
