<svg width="110" height="48" viewBox="0 0 110 48" fill="none" xmlns="http://www.w3.org/2000/svg">
<path d="M11.9896 34.5828H0.47876V37.8046H4.55837V47.8037H7.91267V37.8046H11.9896V34.5828Z" fill="#2C2C2C"/>
<path d="M21.7936 41.8468C21.7936 39.23 20.8067 37.923 18.8491 37.923C18.3233 37.923 17.8299 38.0413 17.3688 38.2538C16.9077 38.4689 16.4305 38.8777 15.956 39.4855V34.5855H13.0601V47.8037H15.9532V42.1023C16.1986 41.672 16.4629 41.3008 16.7433 41.0077C17.0237 40.7145 17.3527 40.5774 17.714 40.5774C18.1751 40.5774 18.4878 40.7737 18.6523 41.1636C18.8168 41.5536 18.8977 41.9651 18.8977 42.433V42.667V42.7638V47.801H21.7909V41.8468H21.7936Z" fill="#2C2C2C"/>
<path d="M25.9488 42.0807C25.9488 41.4756 26.1025 40.9673 26.4099 40.5962C26.7173 40.225 27.1245 40.0287 27.6206 40.0287C28.1302 40.0287 28.5239 40.225 28.7773 40.5962C29.0496 40.9673 29.1872 41.4541 29.1872 42.0807H25.9488ZM31.9941 43.0973C31.9941 41.8682 31.7892 40.8705 31.382 40.1093C30.956 39.3294 30.4275 38.7808 29.7966 38.4312C29.1494 38.1004 28.4861 37.9229 27.8039 37.9229C26.7658 37.9229 25.8626 38.1381 25.1291 38.5684C24.3957 38.9987 23.851 39.5849 23.4951 40.346C23.1365 41.0883 22.9504 41.9462 22.9504 42.9036C22.9504 43.8799 23.1365 44.7405 23.4951 45.5016C23.8537 46.2626 24.3984 46.8677 25.1291 47.3169C25.8626 47.766 26.7632 47.9812 27.8039 47.9812C28.7585 47.9812 29.5593 47.8844 30.1875 47.6692C30.7996 47.454 31.3443 47.2201 31.7703 46.9458V44.8185C30.5623 45.4639 29.4379 45.7947 28.4322 45.7947C27.8525 45.7947 27.3429 45.5984 26.8818 45.2299C26.4207 44.8588 26.1484 44.3693 26.0297 43.7857H31.9914V43.0973H31.9941Z" fill="#2C2C2C"/>
<path d="M40.0238 38.0977C39.7595 37.9794 39.4602 37.9229 39.107 37.9229C38.4383 37.9229 37.8748 38.1972 37.3814 38.7432C36.8879 39.2891 36.5347 39.8566 36.3405 40.4429V38.1004H33.2397V47.8037H36.3405V43.6244C36.6399 42.745 36.9392 42.1399 37.2573 41.809C37.5728 41.4783 37.9449 41.3196 38.3844 41.3196C38.8779 41.3196 39.3524 41.5724 39.8108 42.0619L40.9567 38.6248C40.6035 38.3909 40.288 38.2161 40.0238 38.0977Z" fill="#2C2C2C"/>
<path d="M57.0998 41.887C57.0998 41.048 56.9974 40.3245 56.7736 39.7409C56.5498 39.1546 56.2047 38.7055 55.7409 38.3936C55.2744 38.0816 54.7082 37.9256 54.0179 37.9256C53.3465 37.9256 52.7263 38.0816 52.2086 38.3936C51.6909 38.727 51.1759 39.195 50.6933 39.8189C50.5719 39.4881 50.3994 39.1735 50.1945 38.9206C49.9868 38.6678 49.763 38.4715 49.5069 38.3344C49.248 38.1784 48.9891 38.0789 48.7303 38.0224C48.4553 37.9633 48.1802 37.9256 47.8864 37.9256C47.2661 37.9256 46.7323 38.0439 46.2658 38.2967C45.7832 38.5522 45.3194 38.9422 44.8691 39.4881V38.1031H41.8384V47.8064H44.8691V42.1049C44.9203 42.0457 45.0255 41.8897 45.1954 41.6369C45.3491 41.3841 45.5054 41.2066 45.6079 41.0721C45.7293 40.9538 45.8829 40.8382 46.0744 40.7414C46.2631 40.6445 46.4707 40.5854 46.6946 40.5854C47.161 40.5854 47.4873 40.7602 47.676 41.1125C47.8648 41.4836 47.951 41.9704 47.951 42.6347V47.809H50.9818V42.1075C51.2568 41.6772 51.5156 41.3061 51.7907 41.013C52.0495 40.7199 52.3947 40.5827 52.8234 40.5827C53.2548 40.5827 53.5649 40.7575 53.7698 41.091C53.9586 41.4433 54.0637 41.9516 54.0637 42.6347V47.809H57.0944V41.887H57.0998Z" fill="#2C2C2C"/>
<path d="M64.0135 44.7566C63.7144 45.2057 63.2746 45.4209 62.7086 45.4209C62.1445 45.4209 61.7053 45.2057 61.4032 44.7566C61.104 44.3075 60.945 43.7024 60.945 42.9413C60.945 42.1802 61.104 41.5751 61.4032 41.126C61.7029 40.6957 62.1257 40.4805 62.7086 40.4805C63.2721 40.4805 63.7144 40.6957 64.0135 41.126C64.3126 41.5751 64.4716 42.1802 64.4716 42.9413C64.4716 43.7024 64.3126 44.3075 64.0135 44.7566ZM67.4133 40.9296C67.2032 40.3245 66.8852 39.7974 66.4618 39.3483C66.0573 38.8991 65.5285 38.5469 64.895 38.294C64.2614 38.0413 63.5389 37.9229 62.7111 37.9229C61.8832 37.9229 61.1607 38.0385 60.5432 38.294C59.9095 38.5469 59.3811 38.8991 58.9577 39.3671C58.5344 39.8162 58.2189 40.3433 58.0059 40.9484C57.7956 41.5535 57.6877 42.2178 57.6877 42.9413C57.6877 43.9175 57.8819 44.7781 58.2513 45.5177C58.6207 46.2788 59.1842 46.8839 59.9419 47.3142C60.6996 47.7633 61.6164 47.9785 62.7086 47.9785C63.7844 47.9785 64.6982 47.7633 65.456 47.3142C66.2138 46.8839 66.7773 46.2788 67.1654 45.5177C67.5352 44.7754 67.7289 43.9175 67.7289 42.9413C67.7289 42.2178 67.6241 41.5348 67.4133 40.9296Z" fill="#2C2C2C"/>
<path d="M78.8841 47.9381H79.0863L83.7161 34.4859H82.7883L78.9998 45.5365L75.1468 34.4859H74.858L71.0373 45.5365L67.2165 34.4859H66.3052L70.9538 47.9381H71.1725L75.028 36.6912L78.8841 47.9381Z" fill="#2C2C2C"/>
<path d="M84.0962 34.4859V47.8037H84.9429V41.6342C85.6465 40.3837 86.5122 39.7597 87.5338 39.7597C88.9605 39.7597 89.683 40.7764 89.683 42.8068V47.8064H90.5297V42.4169C90.5297 41.3035 90.2653 40.4455 89.7366 39.8001C89.1895 39.1546 88.4859 38.8427 87.588 38.8427C86.5122 38.8427 85.6331 39.4075 84.9807 40.5424H84.9454V34.4886H84.0962V34.4859Z" fill="#2C2C2C"/>
<path d="M91.9749 47.8037H92.8216V39.0363H91.9749V47.8037ZM91.9749 36.0861H92.8216V34.4859H91.9749V36.0861Z" fill="#2C2C2C"/>
<path d="M96.4346 36.1264L95.8522 36.9466V39.0363H93.7195V39.7974H95.8522V46.1228C95.8522 46.709 96.0277 47.177 96.381 47.5078C96.7337 47.8386 97.1571 47.9973 97.6858 47.9973C98.2146 47.9973 98.7616 47.8413 99.3251 47.5481V46.6499C98.7805 46.943 98.2871 47.0802 97.8802 47.0802C97.3325 47.0802 97.017 46.943 96.8933 46.6902C96.769 46.4159 96.699 45.87 96.699 45.0309V39.7974H98.9182V39.0363H96.699V36.1264H96.4346Z" fill="#2C2C2C"/>
<path d="M101.574 40.4401C102.051 39.991 102.615 39.757 103.265 39.757C104.64 39.757 105.468 40.6176 105.767 42.3334H100.639C100.8 41.5159 101.1 40.8893 101.574 40.4401ZM105.751 39.991C105.082 39.2299 104.254 38.84 103.267 38.84C102.227 38.84 101.363 39.2703 100.676 40.1093C99.9886 40.9484 99.6353 42.0242 99.6353 43.3123C99.6353 44.6786 100.005 45.7919 100.746 46.6714C101.504 47.5508 102.437 47.9999 103.583 47.9999C104.71 47.9999 105.732 47.61 106.632 46.8274V45.7732C105.681 46.6525 104.694 47.0802 103.691 47.0802C102.828 47.0802 102.087 46.7494 101.452 46.0663C100.819 45.3832 100.501 44.5441 100.501 43.5678C100.501 43.4119 100.501 43.2559 100.52 43.0999H106.775C106.772 41.7875 106.439 40.7548 105.751 39.991Z" fill="#2C2C2C"/>
<path d="M107.714 34.5263C108.641 34.5263 109.396 35.2793 109.396 36.2044C109.396 37.1296 108.641 37.8826 107.714 37.8826C106.786 37.8826 106.031 37.1296 106.031 36.2044C106.029 35.2793 106.786 34.5263 107.714 34.5263ZM107.717 37.6325C108.49 37.6325 109.073 37.0085 109.073 36.2044C109.073 35.4003 108.49 34.7764 107.717 34.7764C106.934 34.7764 106.35 35.4003 106.35 36.2044C106.352 37.0085 106.934 37.6325 107.717 37.6325ZM107.069 35.2201H107.824C108.277 35.2201 108.501 35.4003 108.501 35.7741C108.501 36.0914 108.301 36.3174 107.994 36.3174L108.552 37.186H108.212L107.662 36.3174H107.393V37.186H107.072V35.2201H107.069ZM107.39 36.0646H107.773C108.021 36.0646 108.18 36.0135 108.18 35.758C108.18 35.5348 107.98 35.4702 107.773 35.4702H107.39V36.0646Z" fill="#2C2C2C"/>
<path d="M57.9115 28.5127L55.5603 27.1277L55.5764 28.5074C55.6088 28.5074 55.6385 28.5074 55.6708 28.5074C56.4231 28.5046 57.17 28.5074 57.9115 28.5127Z" fill="#2C71B5"/>
<path d="M52.9609 28.5128L52.9771 27.125L50.5935 28.5316C51.3727 28.5235 52.1627 28.5181 52.9609 28.5128Z" fill="#2C71B5"/>
<path d="M59.8934 26.5871L62.8646 25.0973C60.9908 25.0435 59.0656 25.0085 57.0784 24.9951L59.8934 26.5871Z" fill="#2C71B5"/>
<path d="M63.8894 25.1296L65.2838 26.7755L62.5955 28.0933L63.466 28.5827C90.511 29.1287 109.394 32.3102 109.394 32.3102C109.394 32.3102 94.1484 26.1327 63.8894 25.1296Z" fill="#2C71B5"/>
<path d="M48.6415 26.5871L51.408 25.0246C49.4935 25.0542 47.6276 25.1025 45.8157 25.1725L48.6415 26.5871Z" fill="#2C71B5"/>
<path d="M45.9396 28.0932L43.2568 26.7754L44.5645 25.221C15.4895 26.4635 0.47876 32.3101 0.47876 32.3101C0.47876 32.3101 16.5411 29.2712 44.9986 28.623L45.9396 28.0932Z" fill="#2C71B5"/>
<path d="M61.0368 28.0501L64.1269 26.5333L63.3801 25.6512L59.8746 27.41L55.28 24.8202L53.2307 24.8282L48.6631 27.41L45.1551 25.6512L44.4109 26.5333L47.5009 28.0501L44.2329 29.8896L44.9313 31.0299L48.1184 29.1474L47.9 32.5682L49.0783 32.345L49.267 28.4696L53.7188 25.8448L53.6594 31.003L50.3699 33.1222L50.7878 34.2114L53.6244 32.3073L53.5947 36.0429H54.9402L54.9106 32.3073L57.7526 34.2114L58.1678 33.1222L54.8782 31.003L54.8189 25.8448L59.2706 28.4696L59.462 32.345L60.6349 32.5682L60.4166 29.1474L63.6061 31.0273L64.3018 29.8896L61.0368 28.0501Z" fill="#2C71B5"/>
<path d="M28.3242 25.6028L41.0349 13.2855V3.50694L46.5005 3.49349L46.4816 7.48988L54.2256 -9.53674e-07L69.8 21.558L54.2417 7.57865L35.7123 24.5217C34.1511 24.5809 34.871 24.5809 32.5899 24.8202C29.9825 25.194 28.3242 25.6028 28.3242 25.6028Z" fill="#FF6933"/>
<path d="M56.2882 24.1882L65.378 24.3442V24.3415V23.1555L56.2882 23.3572L64.7334 20.0573L64.2802 18.9628L55.9727 22.6257L62.5221 16.3407L61.6784 15.5123L55.393 22.0125L59.0142 13.7427L57.933 13.2747L54.6245 21.7167L54.8132 12.6643H53.6214L53.8264 21.7167L50.5179 13.2747L49.4232 13.7427L53.0579 22.0125L46.7565 15.5123L45.926 16.3407L52.4782 22.623L44.1545 18.9628L43.715 20.0573L52.1492 23.3572L43.0732 23.1555V24.3738L52.1492 24.1882L52.1574 24.1828H56.2801L56.2882 24.1882Z" fill="#FF6933"/>
</svg>
