<svg width="32" height="32" viewBox="0 0 32 32" fill="none" xmlns="http://www.w3.org/2000/svg">
<g clip-path="url(#clip0_40001002_4429)">
<path fill-rule="evenodd" clip-rule="evenodd" d="M16 32C24.8366 32 32 24.8366 32 16C32 7.16344 24.8366 0 16 0C7.16344 0 0 7.16344 0 16C0 24.8366 7.16344 32 16 32Z" fill="#2C71B5"/>
<path fill-rule="evenodd" clip-rule="evenodd" d="M13.7973 18.7866L13.7966 12.7501L19.5606 15.7788L13.7973 18.7866ZM26.4533 11.7041C26.4533 11.7041 26.2446 10.2236 25.6053 9.57172C24.7939 8.71569 23.8846 8.71166 23.4679 8.66198C20.4826 8.44444 16.0046 8.44444 16.0046 8.44444H15.9953C15.9953 8.44444 11.5173 8.44444 8.53192 8.66198C8.11459 8.71166 7.20592 8.71569 6.39392 9.57172C5.75459 10.2236 5.54659 11.7041 5.54659 11.7041C5.54659 11.7041 5.33325 13.443 5.33325 15.1812V16.8114C5.33325 18.5503 5.54659 20.2885 5.54659 20.2885C5.54659 20.2885 5.75459 21.769 6.39392 22.4209C7.20592 23.2769 8.27192 23.2501 8.74659 23.3394C10.4533 23.5045 15.9999 23.5556 15.9999 23.5556C15.9999 23.5556 20.4826 23.5488 23.4679 23.3313C23.8846 23.281 24.7939 23.2769 25.6053 22.4209C26.2446 21.769 26.4533 20.2885 26.4533 20.2885C26.4533 20.2885 26.6666 18.5503 26.6666 16.8114V15.1812C26.6666 13.443 26.4533 11.7041 26.4533 11.7041Z" fill="white"/>
</g>
<defs>
<clipPath id="clip0_40001002_4429">
<rect width="32" height="32" fill="white"/>
</clipPath>
</defs>
</svg>
