<svg width="7" height="12" viewBox="0 0 7 12" fill="none" xmlns="http://www.w3.org/2000/svg">
<path d="M6.70993 2.12001L2.82993 6.00001L6.70993 9.88001C6.80251 9.97259 6.87595 10.0825 6.92606 10.2035C6.97616 10.3244 7.00195 10.4541 7.00195 10.585C7.00195 10.7159 6.97616 10.8456 6.92606 10.9666C6.87595 11.0875 6.80251 11.1974 6.70993 11.29C6.61735 11.3826 6.50744 11.456 6.38648 11.5061C6.26551 11.5562 6.13586 11.582 6.00493 11.582C5.874 11.582 5.74435 11.5562 5.62339 11.5061C5.50242 11.456 5.39251 11.3826 5.29993 11.29L0.709931 6.70001C0.319932 6.31001 0.319932 5.68001 0.709931 5.29001L5.29993 0.700011C5.39245 0.607307 5.50233 0.53376 5.62331 0.483579C5.74428 0.433397 5.87396 0.407567 6.00493 0.407567C6.1359 0.407567 6.26558 0.433397 6.38656 0.483579C6.50753 0.53376 6.61742 0.607307 6.70993 0.700011C7.08993 1.09001 7.09993 1.73001 6.70993 2.12001Z" fill="#2C71B5"/>
</svg>
